<?xml version="1.0" encoding="UTF-8" standalone="no"?>
<!DOCTYPE svg PUBLIC "-//W3C//DTD SVG 1.1//EN" "http://www.w3.org/Graphics/SVG/1.1/DTD/svg11.dtd">
<svg width="100%" height="100%" viewBox="0 0 512 512" version="1.1" xmlns="http://www.w3.org/2000/svg" xmlns:xlink="http://www.w3.org/1999/xlink" xml:space="preserve" xmlns:serif="http://www.serif.com/" style="fill-rule:evenodd;clip-rule:evenodd;stroke-linejoin:round;stroke-miterlimit:2;">
    <g transform="matrix(176.602,0,0,176.602,5.13647,321.078)">
        <path d="M0.243,0.013C0.393,0.013 0.457,-0.093 0.457,-0.225L0.457,-0.736L0.341,-0.736L0.341,-0.236C0.341,-0.128 0.304,-0.088 0.23,-0.088C0.182,-0.088 0.142,-0.111 0.111,-0.168L0.03,-0.109C0.076,-0.028 0.144,0.013 0.243,0.013Z" style="fill:rgb(255,235,166);fill-rule:nonzero;"/>
    </g>
    <g transform="matrix(176.602,0,0,176.602,102.268,321.078)">
        <path d="M0.367,0.013C0.53,0.013 0.64,-0.076 0.64,-0.316L0.64,-0.736L0.528,-0.736L0.528,-0.308C0.528,-0.142 0.46,-0.088 0.367,-0.088C0.275,-0.088 0.209,-0.142 0.209,-0.308L0.209,-0.736L0.093,-0.736L0.093,-0.316C0.093,-0.076 0.204,0.013 0.367,0.013Z" style="fill:rgb(255,235,166);fill-rule:nonzero;"/>
    </g>
    <g transform="matrix(176.602,0,0,176.602,231.717,321.078)">
        <path d="M0.097,-0L0.201,-0L0.201,-0.364C0.201,-0.429 0.192,-0.524 0.187,-0.591L0.191,-0.591L0.249,-0.421L0.378,-0.071L0.45,-0.071L0.578,-0.421L0.637,-0.591L0.641,-0.591C0.635,-0.524 0.626,-0.429 0.626,-0.364L0.626,-0L0.734,-0L0.734,-0.736L0.6,-0.736L0.467,-0.364C0.45,-0.315 0.436,-0.265 0.419,-0.216L0.414,-0.216C0.397,-0.265 0.382,-0.315 0.365,-0.364L0.23,-0.736L0.097,-0.736L0.097,-0Z" style="fill:rgb(255,235,166);fill-rule:nonzero;"/>
    </g>
    <g transform="matrix(176.602,0,0,176.602,378.297,321.078)">
        <path d="M0.377,0.013C0.566,0.013 0.698,-0.134 0.698,-0.371C0.698,-0.608 0.566,-0.75 0.377,-0.75C0.188,-0.75 0.057,-0.608 0.057,-0.371C0.057,-0.134 0.188,0.013 0.377,0.013ZM0.377,-0.088C0.255,-0.088 0.176,-0.199 0.176,-0.371C0.176,-0.544 0.255,-0.649 0.377,-0.649C0.499,-0.649 0.579,-0.544 0.579,-0.371C0.579,-0.199 0.499,-0.088 0.377,-0.088Z" style="fill:rgb(255,235,166);fill-rule:nonzero;"/>
    </g>
</svg>
