<?xml version="1.0" encoding="UTF-8" standalone="no"?>
<!DOCTYPE svg PUBLIC "-//W3C//DTD SVG 1.1//EN" "http://www.w3.org/Graphics/SVG/1.1/DTD/svg11.dtd">
<svg width="100%" height="100%" viewBox="0 0 475 47" version="1.1" xmlns="http://www.w3.org/2000/svg" xmlns:xlink="http://www.w3.org/1999/xlink" xml:space="preserve" xmlns:serif="http://www.serif.com/" style="fill-rule:evenodd;clip-rule:evenodd;stroke-linejoin:round;stroke-miterlimit:2;">
    <g transform="matrix(4.16667,0,0,4.16667,-2267.69,-10657.3)">
        <path d="M553.184,2568.88L551.745,2568.88L551.745,2557.76L553.184,2557.76L553.184,2568.88ZM549.346,2557.88L550.795,2557.88L550.795,2568.6L549.346,2568.6L549.346,2562.44L547.33,2562.44L547.33,2561.19L549.346,2561.19L549.346,2557.88ZM545.746,2564.59C546.791,2564.59 547.855,2564.45 548.854,2564.18L548.854,2565.45C547.869,2565.71 546.598,2565.86 545.363,2565.86L544.246,2565.86L544.246,2558.57L545.746,2558.57L545.746,2564.59Z" style="fill:rgb(255,255,255);fill-rule:nonzero;"/>
    </g>
    <g transform="matrix(4.16667,0,0,4.16667,-2267.69,-10657.3)">
        <path d="M562.35,2557.76L563.838,2557.76L563.838,2568.88L562.35,2568.88L562.35,2557.76ZM559.279,2562.41C559.279,2560.7 558.764,2559.66 557.879,2559.66C556.988,2559.66 556.473,2560.7 556.473,2562.41C556.473,2564.13 556.988,2565.17 557.879,2565.17C558.764,2565.17 559.279,2564.13 559.279,2562.41M560.793,2562.41C560.793,2565.01 559.629,2566.45 557.879,2566.45C556.127,2566.45 554.963,2565.01 554.963,2562.41C554.963,2559.83 556.127,2558.39 557.879,2558.39C559.629,2558.39 560.793,2559.83 560.793,2562.41" style="fill:rgb(255,255,255);fill-rule:nonzero;"/>
    </g>
    <g transform="matrix(4.16667,0,0,4.16667,-2267.69,-10657.3)">
        <path d="M569.926,2562.46L567.694,2562.46L567.694,2564.72L569.926,2564.72L569.926,2562.46ZM571.387,2561.54L573.355,2561.54L573.355,2557.76L574.842,2557.76L574.842,2568.88L573.355,2568.88L573.355,2562.8L571.387,2562.8L571.387,2565.94L566.193,2565.94L566.193,2558.58L567.707,2558.58L567.707,2561.24L569.912,2561.24L569.912,2558.58L571.387,2558.58L571.387,2561.54Z" style="fill:rgb(255,255,255);fill-rule:nonzero;"/>
    </g>
    <g transform="matrix(4.16667,0,0,4.16667,191.024,24.3875)">
        <path d="M0,-0.587L-1.736,-0.587L-1.736,5.266L-3.225,5.266L-3.225,-5.853L-1.736,-5.853L-1.736,-1.847L0,-1.847L0,-0.587ZM-5.947,-1.199C-5.947,-2.914 -6.439,-3.957 -7.326,-3.957C-8.213,-3.957 -8.705,-2.914 -8.705,-1.199C-8.705,0.517 -8.213,1.559 -7.326,1.559C-6.439,1.559 -5.947,0.517 -5.947,-1.199M-4.438,-1.199C-4.438,1.392 -5.574,2.831 -7.326,2.831C-9.078,2.831 -10.217,1.392 -10.217,-1.199C-10.217,-3.789 -9.078,-5.229 -7.326,-5.229C-5.574,-5.229 -4.438,-3.789 -4.438,-1.199" style="fill:rgb(255,255,255);fill-rule:nonzero;"/>
    </g>
    <g transform="matrix(4.16667,0,0,4.16667,-2267.69,-10657.3)">
        <path d="M598.35,2557.76L599.838,2557.76L599.838,2568.88L598.35,2568.88L598.35,2557.76ZM595.279,2562.41C595.279,2560.7 594.764,2559.66 593.879,2559.66C592.988,2559.66 592.473,2560.7 592.473,2562.41C592.473,2564.13 592.988,2565.17 593.879,2565.17C594.764,2565.17 595.279,2564.13 595.279,2562.41M596.793,2562.41C596.793,2565.01 595.629,2566.45 593.879,2566.45C592.127,2566.45 590.963,2565.01 590.963,2562.41C590.963,2559.83 592.127,2558.39 593.879,2558.39C595.629,2558.39 596.793,2559.83 596.793,2562.41" style="fill:rgb(255,255,255);fill-rule:nonzero;"/>
    </g>
    <g transform="matrix(4.16667,0,0,4.16667,-2267.69,-10657.3)">
        <path d="M609.355,2557.76L610.841,2557.76L610.841,2568.88L609.355,2568.88L609.355,2557.76ZM602.314,2558.69L607.615,2558.69L607.615,2559.96L603.824,2559.96L603.824,2564.85L604.953,2564.85C606.346,2564.85 607.785,2564.6 608.924,2564.37L608.924,2565.61C607.869,2565.91 606.082,2566.12 604.617,2566.12L602.314,2566.12L602.314,2558.69Z" style="fill:rgb(255,255,255);fill-rule:nonzero;"/>
    </g>
    <g transform="matrix(4.16667,0,0,4.16667,291.545,14.4417)">
        <path d="M0,3.383L0,-0.251L5.578,-0.251L5.578,-1.486L-0.01,-1.486L-0.01,-2.746L7.066,-2.746L7.066,0.96L1.465,0.96L1.465,2.148L7.402,2.148L7.402,3.383L4.271,3.383L4.271,4.894L8.662,4.894L8.662,6.129L-1.629,6.129L-1.629,4.894L2.76,4.894L2.76,3.383L0,3.383Z" style="fill:rgb(255,255,255);fill-rule:nonzero;"/>
    </g>
    <g transform="matrix(4.16667,0,0,4.16667,349.846,14.4417)">
        <path d="M0,3.383L0,-0.251L5.578,-0.251L5.578,-1.486L-0.01,-1.486L-0.01,-2.746L7.066,-2.746L7.066,0.96L1.465,0.96L1.465,2.148L7.402,2.148L7.402,3.383L4.271,3.383L4.271,4.894L8.662,4.894L8.662,6.129L-1.629,6.129L-1.629,4.894L2.76,4.894L2.76,3.383L0,3.383Z" style="fill:rgb(255,255,255);fill-rule:nonzero;"/>
    </g>
    <g transform="matrix(4.16667,0,0,4.16667,418.84,34.0833)">
        <path d="M0,-5.913L-5.672,-5.913L-5.672,-7.196L1.572,-7.196C1.51,-4.846 1.211,-2.135 0.861,0.036L3.105,0.036L3.105,1.283L-7.186,1.283L-7.186,0.036L-0.686,0.036C-0.287,-1.978 -0.037,-4.101 0,-5.913" style="fill:rgb(255,255,255);fill-rule:nonzero;"/>
    </g>
    <g transform="matrix(4.16667,0,0,4.16667,-2267.69,-10658.2)">
        <path d="M657.834,2565.88L656.357,2565.88L656.357,2557.98L657.834,2557.98L657.834,2565.88ZM658.061,2568.88L650.793,2568.88L650.793,2565.45L652.27,2565.45L652.27,2567.62L658.061,2567.62L658.061,2568.88ZM650.506,2561.3C650.506,2562.27 651.045,2562.88 651.934,2562.88C652.795,2562.88 653.371,2562.27 653.371,2561.3C653.371,2560.27 652.795,2559.64 651.934,2559.64C651.059,2559.64 650.506,2560.27 650.506,2561.3M648.971,2561.3C648.971,2559.64 650.193,2558.4 651.91,2558.4C653.646,2558.4 654.895,2559.64 654.895,2561.3C654.895,2562.91 653.646,2564.16 651.91,2564.16C650.17,2564.16 648.971,2562.91 648.971,2561.3" style="fill:rgb(255,255,255);fill-rule:nonzero;"/>
    </g>
</svg>
